<svg xmlns="http://www.w3.org/2000/svg" viewBox="0 0 32 32" width="32" height="32">
  <g transform="translate(16,23)">
    <path transform="rotate(-42)" d="M 0 0 C 7 -3 7 -15 0 -20 C -7 -15 -7 -3 0 0 Z" fill="#3949AB" stroke="#283593" stroke-width="0.8" opacity="0.85"/>
    <path transform="rotate(42)"  d="M 0 0 C 7 -3 7 -15 0 -20 C -7 -15 -7 -3 0 0 Z" fill="#3949AB" stroke="#283593" stroke-width="0.8" opacity="0.85"/>
    <path transform="rotate(-20)" d="M 0 0 C 7 -3 7 -15 0 -20 C -7 -15 -7 -3 0 0 Z" fill="#5C6BC0" stroke="#283593" stroke-width="0.8"/>
    <path transform="rotate(20)"  d="M 0 0 C 7 -3 7 -15 0 -20 C -7 -15 -7 -3 0 0 Z" fill="#5C6BC0" stroke="#283593" stroke-width="0.8"/>
    <path transform="rotate(0)"   d="M 0 0 C 7 -3 7 -15 0 -20 C -7 -15 -7 -3 0 0 Z" fill="#7986CB" stroke="#283593" stroke-width="0.8"/>
    <circle r="3.5" fill="#3949AB"/>
    <circle r="1.8" fill="white" opacity="0.6"/>
  </g>
  <!-- Pause bars -->
  <rect x="11" y="7" width="3.2" height="14" rx="1.4" fill="white" opacity="0.93"/>
  <rect x="17.8" y="7" width="3.2" height="14" rx="1.4" fill="white" opacity="0.93"/>
</svg>